<svg width="94" height="94" viewBox="0 0 94 94" fill="none" xmlns="http://www.w3.org/2000/svg">
<circle cx="47" cy="47" r="47" fill="#D9D9D9"/>
<circle cx="47" cy="47" r="47" fill="white"/>
<circle cx="47" cy="47" r="47" fill="#C3C7E7" fill-opacity="0.6"/>
<path d="M40.8573 43.432H44.3133V45.144H40.8573V43.432ZM43.1933 39.624H45.3213V50.424H43.1933V39.624ZM35.5453 52.472H45.6573V54.168H35.5453V52.472ZM35.5453 49.512H37.6733V53.48H35.5453V49.512ZM36.3453 41.56H38.0733V42.488C38.0733 45.272 36.7613 47.848 33.9133 48.792L32.8413 47.096C35.2893 46.296 36.3453 44.36 36.3453 42.488V41.56ZM36.7933 41.56H38.5053V42.488C38.5053 44.216 39.5133 46.056 41.8493 46.84L40.8093 48.504C38.0573 47.592 36.7933 45.128 36.7933 42.488V41.56ZM33.4173 40.616H41.3853V42.296H33.4173V40.616ZM49.288 40.232H58.68V41.928H49.288V40.232ZM47.656 45.352H61.064V47.048H47.656V45.352ZM53.272 46.552H55.4V49.656H53.272V46.552ZM57.4 40.232H59.496V41.416C59.496 42.696 59.496 44.184 59.032 46.136L56.936 45.928C57.4 44.024 57.4 42.664 57.4 41.416V40.232ZM49 49.128H59.512V54.424H57.384V50.808H49V49.128Z" fill="#7B61FF"/>
</svg>
